<svg width="104" height="104" viewBox="0 0 104 104" fill="none" xmlns="http://www.w3.org/2000/svg">
<path d="M45.9372 0.333876C34.117 1.88607 23.8387 6.80135 15.616 14.8608C8.51997 21.8059 3.75633 30.1837 1.36464 39.9348C0.336798 44.1337 -0.0189912 47.3574 0.000774922 52.0736C0.020541 60.6306 1.70066 67.6753 5.55506 75.4362C9.40944 83.1574 15.4974 90.0626 22.9295 95.0774C32.8521 101.764 45.443 104.988 56.8085 103.734C69.8543 102.281 80.2709 97.3659 89.0471 88.4707C100.907 76.4313 105.888 60.8695 103.358 43.5167C101.895 33.328 96.064 22.1044 88.4936 14.8409C81.3384 7.99535 72.7401 3.33877 63.3314 1.22937C57.9353 0.0353778 50.9974 -0.342721 45.9372 0.333876ZM58.4097 6.90086C72.6611 8.99034 85.2519 18.204 91.7748 31.3181C93.7514 35.298 95.1746 39.7954 95.8861 44.2131C96.3803 47.2778 96.3803 55.4965 95.8861 58.3421C94.5618 65.8643 91.8736 72.2324 87.3671 78.3415C86.6158 79.3763 84.6591 81.5653 83.0382 83.1971L80.0931 86.1424L80.2117 87.6747L80.3302 89.1871L79.757 86.9981C79.0849 84.3912 78.4919 82.9386 77.6223 81.7844C77.2666 81.3066 76.97 80.8093 76.97 80.6699C76.9897 80.5505 77.4839 80.0729 78.0967 79.6351C79.2035 78.8391 80.7256 77.2271 81.5558 75.9535C81.8522 75.5356 82.2673 75.1974 82.6825 75.078C83.6707 74.7993 84.7974 73.6253 85.0543 72.6103C85.3312 71.6352 85.2322 71.1776 84.5601 70.1628L84.0661 69.4462L84.5008 67.4762C84.9358 65.526 84.9358 65.4863 84.5996 62.4216C84.4218 60.7302 84.2835 59.0984 84.2835 58.8197C84.2835 58.1233 82.7615 55.0586 81.5558 53.3672C79.5396 50.5016 78.7885 49.8249 75.863 48.3922C72.4632 46.7008 71.2182 46.4221 67.7787 46.5614C64.7743 46.6808 62.2442 47.2578 59.9317 48.3723C57.5991 49.4867 54.9505 52.1333 52.4008 55.9343C51.531 57.2079 51.4717 57.367 51.4717 58.6009C51.4717 59.556 51.2741 60.4914 50.7601 62.1032C49.8905 64.8294 49.93 65.4663 51.1753 67.5956C51.6695 68.4314 52.0647 69.2274 52.0647 69.3268C52.0647 69.4462 51.8078 69.8244 51.4717 70.1825C50.4242 71.317 50.444 73.0681 51.531 74.2423C52.1437 74.8989 53.6459 75.5159 54.0216 75.2571C54.1204 75.1974 54.0413 74.6999 53.8239 74.1626C53.2309 72.5906 53.389 72.5309 54.1203 74.0632C55.5632 77.1277 57.5201 79.0978 60.663 80.6499C63.0348 81.8041 65.0707 82.3216 67.9765 82.4608C69.2811 82.5205 70.1705 82.6399 69.9531 82.7195C68.7671 83.1374 63.3117 82.3614 60.8013 81.4062L59.4967 80.9087L59.1608 81.3663C58.4295 82.3216 56.9864 85.4857 56.6307 86.8985C56.4331 87.7144 56.1563 89.3662 56.0179 90.5601C55.6225 94.2814 55.4644 94.6196 55.0495 92.4306C54.3577 88.8089 49.7126 71.6552 49.1394 70.6204C49.0603 70.4613 47.815 70.0434 46.3721 69.6852C44.9292 69.3071 43.3478 68.8692 42.8536 68.6702C42.3794 68.4911 41.9247 68.3917 41.8654 68.4514C41.8061 68.511 42.142 69.088 42.6165 69.7249C43.0909 70.3616 43.763 71.3367 44.1187 71.8742C45.0478 73.3666 47.2023 78.0231 47.8348 79.8739C48.5266 81.8441 48.4673 81.9832 46.3919 83.7543C45.6013 84.4309 44.949 85.1275 44.949 85.3066C44.949 85.4657 45.8582 86.4608 46.9651 87.4956C48.8823 89.3065 48.9615 89.4259 48.8032 89.9831L48.6254 90.5801L48.5464 89.9631C48.5068 89.4856 48.0324 88.9483 46.4314 87.416C45.2849 86.3612 44.356 85.3663 44.356 85.207C44.356 85.0678 45.0676 84.3315 45.9175 83.5752C48.0917 81.7047 48.1114 81.5853 47.222 79.2967C45.7199 75.4562 42.4979 69.5259 41.3119 68.4114C40.9365 68.0532 40.798 67.715 40.798 67.1778C40.798 66.3618 40.976 66.1627 41.984 65.8245C43.0119 65.4863 44.0199 64.7101 44.7117 63.7349C45.2652 62.9589 45.5023 62.8195 47.0244 62.342C47.9534 62.0435 48.7044 61.725 48.7044 61.6456C48.7044 61.546 48.3488 61.0287 47.9138 60.5112C47.0639 59.4764 46.9057 58.7402 47.4789 58.5612C47.657 58.5015 48.3488 58.4018 49.0011 58.3222C49.6533 58.2625 50.2461 58.163 50.3254 58.1033C50.4044 58.0636 50.2066 57.3073 49.8905 56.4319C49.5543 55.5562 49.2975 54.7204 49.2975 54.601C49.2975 54.4617 49.8114 54.2029 50.444 53.9841C51.8473 53.5263 54.2389 52.3324 54.2389 52.0936C54.2389 51.9942 53.5076 51.5164 52.6379 51.0388C50.9182 50.1234 49.1789 48.7304 49.4358 48.4917C49.5148 48.412 50.2264 48.1335 50.9775 47.8947C52.8751 47.2578 54.8912 46.3226 56.4726 45.3076C57.2039 44.85 57.797 44.4321 57.7574 44.4122C57.6782 44.3525 52.3218 42.0441 51.8078 41.865C51.5705 41.7656 51.5112 41.6462 51.61 41.4671C51.6892 41.3078 52.9938 40.0342 54.496 38.6412C55.9784 37.2283 57.2039 36.0144 57.2039 35.9349C57.2039 35.7756 55.9784 35.5568 52.3613 35.0393C51.0567 34.8404 49.9102 34.6414 49.8312 34.5617C49.7324 34.4822 50.6415 32.7309 51.8473 30.6812C53.8042 27.3181 54.1796 26.6017 53.982 26.6017C53.9425 26.6017 52.3216 27.1789 50.3847 27.8953C47.5579 28.9301 46.7871 29.1292 46.5895 28.9301C46.1546 28.4923 45.7396 25.2088 45.7396 22.2635V19.4179L44.1384 20.2736C42.2608 21.2886 39.7505 23.2586 38.5842 24.6318C38.1493 25.169 37.6948 25.6069 37.6158 25.6069C37.5168 25.6069 36.7657 24.6915 35.9158 23.557C34.4531 21.6068 31.9823 18.8408 31.7056 18.8408C31.6266 18.8408 31.4683 19.7164 31.3498 20.7711C30.9941 23.7561 29.9464 27.3978 29.4324 27.3978C29.2941 27.3978 28.3454 26.9999 27.3372 26.5221C25.7165 25.766 23.2457 25.0097 22.3365 25.0097C22.0994 25.0097 22.2179 25.3679 22.7912 26.542C23.6608 28.3132 24.4514 31.0794 24.3526 32.0345L24.2934 32.6712L22.5143 32.8105C17.3357 33.2087 14.9044 33.4474 14.9044 33.5469C14.9044 33.6265 15.7741 34.5617 16.8415 35.6562C18.8379 37.6861 20.3006 39.8551 20.2017 40.6114C20.1622 40.8899 19.1541 41.7256 17.0787 43.1785C15.3986 44.3525 13.9952 45.4072 13.9557 45.5067C13.9161 45.6063 14.1335 45.7454 14.4498 45.8251C16.5648 46.2827 17.474 46.5814 18.2251 47.019C19.253 47.636 20.3203 48.5514 20.8541 49.3077L21.2493 49.8649L19.0355 52.0736C17.1775 53.9442 16.8613 54.3223 17.0985 54.5413C17.2566 54.6805 18.4425 55.1383 19.7471 55.5362C21.0517 55.9343 22.1982 56.3522 22.297 56.4516C22.3958 56.5513 22.2377 57.5661 21.862 58.9591C21.5261 60.2526 21.3086 61.3868 21.3678 61.4863C21.4668 61.6653 24.7281 61.5062 25.2618 61.3072C25.756 61.1281 25.9536 61.6057 26.0921 63.1779C26.1712 64.0933 26.2897 64.8694 26.3688 64.9091C26.5269 65.0085 28.7406 64.0534 28.7406 63.8943C28.7406 63.8346 28.4837 63.4167 28.1676 62.9589C26.8432 61.0087 25.9339 58.5612 25.2223 54.9592C24.748 52.6706 24.5305 50.4816 24.7678 50.4816C24.8468 50.4816 24.9852 51.1185 25.0642 51.8946C25.4596 56.3322 27.4955 61.964 29.3534 63.8346C29.8278 64.3121 30.8558 64.9888 31.844 65.4464L33.5044 66.2224L33.4449 66.9587L33.3857 67.6951L28.9977 69.1677L24.6095 70.6403L24.2143 71.8542C23.9968 72.5309 23.0876 75.6153 22.2179 78.7397C20.5971 84.411 20.1029 85.8439 20.3401 84.1524C20.4389 83.3165 20.3994 83.237 19.3913 82.1226C13.0859 75.2771 9.19202 67.2572 7.67002 57.9442C7.09681 54.5413 7.15611 47.2578 7.76886 43.9146C9.4885 34.522 13.2836 26.8605 19.4902 20.3134C29.6105 9.66694 43.7827 4.77156 58.4097 6.90086ZM31.6661 71.2173C30.243 74.1826 27.7129 81.2868 27.9302 81.665C28.029 81.8441 28.8791 82.6598 29.8278 83.4956C30.7963 84.3315 31.6068 85.1076 31.6464 85.2469C31.7056 85.3861 31.409 85.8239 30.9941 86.2418C30.5592 86.6996 30.4011 86.799 30.5987 86.5005C31.3695 85.2867 31.4288 85.4458 29.4324 83.5952C28.0883 82.3414 27.5548 81.7247 27.5548 81.3862C27.5548 80.3514 31.4683 70.3816 31.8835 70.3816C31.9823 70.3816 31.8835 70.7597 31.6661 71.2173Z" fill="#00310B"/>
</svg>
