<svg width="56" height="56" viewBox="0 0 56 56" fill="none" xmlns="http://www.w3.org/2000/svg">
<path d="M24.7354 0.17978C18.3707 1.01558 12.8362 3.66227 8.40861 8.00198C4.58768 11.7416 2.02264 16.2528 0.734804 21.5033C0.181353 23.7643 -0.010226 25.5002 0.000417266 28.0396C0.0110606 32.6472 0.91574 36.4405 2.99118 40.6195C5.06662 44.777 8.34476 48.4952 12.3467 51.1955C17.6896 54.7959 24.4693 56.5318 30.5892 55.8568C37.6139 55.0744 43.2228 52.4278 47.9484 47.6381C54.3344 41.1553 57.0165 32.7759 55.6541 23.4321C54.8666 17.9459 51.7267 11.9024 47.6504 7.99127C43.7976 4.30519 39.1677 1.7978 34.1015 0.66197C31.1959 0.0190496 27.4602 -0.184542 24.7354 0.17978ZM31.4514 3.71585C39.1252 4.84095 45.9049 9.80216 49.4172 16.8636C50.4815 19.0066 51.2478 21.4283 51.631 23.8071C51.8971 25.4573 51.8971 29.8827 51.631 31.415C50.9179 35.4654 49.4704 38.8944 47.0438 42.1839C46.6393 42.7411 45.5857 43.9198 44.7129 44.7984L43.1271 46.3844L43.1909 47.2095L43.2547 48.0238L42.9461 46.8451C42.5842 45.4414 42.2649 44.6592 41.7966 44.0377C41.6051 43.7805 41.4454 43.5127 41.4454 43.4376C41.456 43.3733 41.7221 43.1162 42.0521 42.8804C42.648 42.4518 43.4676 41.5838 43.9146 40.898C44.0742 40.673 44.2978 40.4909 44.5213 40.4266C45.0535 40.2765 45.6602 39.6444 45.7985 39.0979C45.9476 38.5728 45.8942 38.3264 45.5324 37.78L45.2664 37.3941L45.5005 36.3334C45.7346 35.2832 45.7346 35.2619 45.5536 33.6116C45.4579 32.7009 45.3834 31.8222 45.3834 31.6721C45.3834 31.2972 44.5639 29.647 43.9146 28.7362C42.829 27.1932 42.4246 26.8288 40.8493 26.0574C39.0187 25.1466 38.3482 24.9965 36.4962 25.0715C34.8785 25.1358 33.5161 25.4465 32.2709 26.0466C31.0149 26.6467 29.5887 28.0718 28.2158 30.1185C27.7474 30.8043 27.7155 30.8899 27.7155 31.5543C27.7155 32.0686 27.6091 32.5723 27.3324 33.4402C26.8641 34.9082 26.8854 35.2511 27.5559 36.3976C27.822 36.8477 28.0348 37.2763 28.0348 37.3298C28.0348 37.3941 27.8965 37.5977 27.7155 37.7906C27.1515 38.4014 27.1621 39.3444 27.7474 39.9766C28.0774 40.3302 28.8863 40.6624 29.0885 40.5231C29.1417 40.4909 29.0992 40.223 28.9821 39.9337C28.6628 39.0872 28.7479 39.0551 29.1417 39.8802C29.9187 41.5303 30.9724 42.5911 32.6647 43.4269C33.9418 44.0484 35.0381 44.327 36.6027 44.402C37.3052 44.4341 37.7841 44.4984 37.6671 44.5413C37.0284 44.7663 34.0909 44.3484 32.7392 43.8341L32.0367 43.5662L31.8558 43.8126C31.462 44.327 30.685 46.0308 30.4935 46.7915C30.3871 47.2308 30.238 48.1202 30.1635 48.7631C29.9506 50.7669 29.8655 50.949 29.642 49.7703C29.2695 47.8202 26.7683 38.5835 26.4597 38.0264C26.4171 37.9407 25.7466 37.7157 24.9696 37.5228C24.1927 37.3192 23.3411 37.0834 23.075 36.9762C22.8197 36.8798 22.5748 36.8263 22.5429 36.8584C22.511 36.8906 22.6919 37.2012 22.9473 37.5442C23.2028 37.887 23.5647 38.4121 23.7562 38.7015C24.2565 39.5051 25.4166 42.0124 25.7572 43.009C26.1297 44.0699 26.0978 44.1448 24.9803 45.0985C24.5545 45.4628 24.2033 45.8379 24.2033 45.9343C24.2033 46.02 24.6929 46.5558 25.2889 47.113C26.3212 48.0881 26.3639 48.1524 26.2787 48.4524L26.1829 48.7739L26.1404 48.4417C26.1191 48.1845 25.8636 47.8952 25.0015 47.0701C24.3842 46.5022 23.884 45.9665 23.884 45.8807C23.884 45.8058 24.2672 45.4093 24.7248 45.002C25.8955 43.9948 25.9062 43.9305 25.4272 42.6982C24.6184 40.6302 22.8835 37.437 22.2449 36.8369C22.0427 36.644 21.9681 36.4619 21.9681 36.1726C21.9681 35.7333 22.064 35.6261 22.6068 35.444C23.1603 35.2619 23.703 34.8439 24.0755 34.3188C24.3736 33.9009 24.5012 33.8259 25.3208 33.5688C25.821 33.408 26.2255 33.2366 26.2255 33.1938C26.2255 33.1401 26.034 32.8616 25.7998 32.5829C25.3421 32.0257 25.2569 31.6294 25.5656 31.5329C25.6614 31.5008 26.034 31.4471 26.3852 31.4042C26.7364 31.3721 27.0556 31.3186 27.0983 31.2864C27.1408 31.265 27.0343 30.8578 26.8641 30.3864C26.6831 29.9149 26.5448 29.4648 26.5448 29.4006C26.5448 29.3255 26.8215 29.1862 27.1621 29.0684C27.9178 28.8219 29.2056 28.179 29.2056 28.0504C29.2056 27.9969 28.8118 27.7396 28.3435 27.4824C27.4175 26.9895 26.4809 26.2395 26.6193 26.1109C26.6618 26.068 27.045 25.918 27.4494 25.7895C28.4712 25.4465 29.5568 24.943 30.4083 24.3964C30.8021 24.15 31.1214 23.925 31.1002 23.9142C31.0575 23.8821 28.1733 22.6391 27.8965 22.5427C27.7687 22.4892 27.7368 22.4249 27.79 22.3284C27.8327 22.2426 28.5351 21.5569 29.344 20.8068C30.1422 20.046 30.8021 19.3924 30.8021 19.3496C30.8021 19.2638 30.1422 19.146 28.1945 18.8673C27.4921 18.7602 26.8747 18.653 26.8322 18.6101C26.779 18.5674 27.2685 17.6243 27.9178 16.5207C28.9715 14.7097 29.1736 14.324 29.0672 14.324C29.046 14.324 28.1732 14.6348 27.1302 15.0205C25.6081 15.5777 25.1931 15.6849 25.0867 15.5777C24.8525 15.342 24.629 13.574 24.629 11.988V10.4558L23.7668 10.9165C22.7558 11.4631 21.4041 12.5238 20.7761 13.2633C20.5419 13.5526 20.2972 13.7883 20.2546 13.7883C20.2013 13.7883 19.7969 13.2954 19.3393 12.6846C18.5517 11.6344 17.2212 10.145 17.0723 10.145C17.0297 10.145 16.9445 10.6165 16.8806 11.1844C16.6891 12.7917 16.125 14.7526 15.8482 14.7526C15.7737 14.7526 15.2629 14.5384 14.72 14.2811C13.8473 13.874 12.5169 13.4668 12.0273 13.4668C11.8997 13.4668 11.9635 13.6596 12.2722 14.2919C12.7404 15.2456 13.1662 16.735 13.113 17.2493L13.081 17.5922L12.1231 17.6672C9.33458 17.8816 8.02546 18.0102 8.02546 18.0637C8.02546 18.1066 8.49377 18.6101 9.06851 19.1995C10.1435 20.2925 10.9311 21.4604 10.8779 21.8677C10.8566 22.0176 10.3138 22.4676 9.19622 23.25C8.29154 23.8821 7.53586 24.45 7.51458 24.5036C7.49329 24.5572 7.61037 24.6322 7.78066 24.6751C8.91949 24.9215 9.40909 25.0823 9.81353 25.3179C10.367 25.6501 10.9417 26.143 11.2291 26.5503L11.4419 26.8503L10.2499 28.0396C9.24943 29.0469 9.07915 29.2505 9.20686 29.3684C9.29201 29.4433 9.9306 29.6899 10.6331 29.9041C11.3355 30.1185 11.9529 30.3435 12.0061 30.397C12.0593 30.4507 11.9741 30.9971 11.7719 31.7472C11.591 32.4437 11.4738 33.0544 11.5058 33.108C11.5591 33.2044 13.3151 33.1187 13.6025 33.0116C13.8686 32.9151 13.975 33.1723 14.0496 34.0189C14.0922 34.5118 14.156 34.9297 14.1986 34.9511C14.2837 35.0046 15.4757 34.4903 15.4757 34.4046C15.4757 34.3725 15.3374 34.1475 15.1672 33.9009C14.454 32.8508 13.9644 31.5329 13.5812 29.5934C13.3259 28.3611 13.2087 27.1824 13.3365 27.1824C13.3791 27.1824 13.4536 27.5253 13.4961 27.9432C13.709 30.3327 14.8053 33.3652 15.8057 34.3725C16.0611 34.6296 16.6146 34.9939 17.1468 35.2404L18.0408 35.6582L18.0088 36.0547L17.9769 36.4512L15.6141 37.2441L13.2513 38.0371L13.0385 38.6907C12.9213 39.0551 12.4318 40.7159 11.9635 42.3983C11.0907 45.4521 10.8246 46.2236 10.9524 45.3129C11.0056 44.8627 10.9843 44.8199 10.4415 44.2198C7.04628 40.5338 4.94955 36.2154 4.13001 31.2007C3.82136 29.3684 3.85329 25.4465 4.18323 23.6463C5.10919 18.5888 7.15271 14.4633 10.4947 10.938C15.9441 5.20528 23.5753 2.5693 31.4514 3.71585ZM17.051 38.3478C16.2847 39.9445 14.9223 43.7698 15.0394 43.9734C15.0926 44.0699 15.5503 44.5091 16.0611 44.9592C16.5826 45.4093 17.0191 45.8272 17.0404 45.9022C17.0723 45.9771 16.9126 46.2129 16.6891 46.4379C16.4549 46.6844 16.3698 46.7379 16.4762 46.5772C16.8913 45.9236 16.9232 46.0093 15.8482 45.0128C15.1245 44.3377 14.8372 44.0056 14.8372 43.8234C14.8372 43.2662 16.9445 37.8978 17.168 37.8978C17.2212 37.8978 17.168 38.1014 17.051 38.3478Z" fill="white"/>
</svg>
